<svg xmlns="http://www.w3.org/2000/svg" width="760" height="236" viewBox="0 0 760 236" role="img" aria-label="harness-engineering">
  <rect width="760" height="236" rx="14" fill="#0d1117"/>
  <!-- Gandalf the Grey, pixel art -->
  <rect x="46" y="26" width="7" height="7" fill="#2f6fd0"/>
  <rect x="53" y="26" width="7" height="7" fill="#6fa8e6"/>
  <rect x="60" y="26" width="7" height="7" fill="#ffffff"/>
  <rect x="67" y="26" width="7" height="7" fill="#6fa8e6"/>
  <rect x="165" y="26" width="7" height="7" fill="#d6dae0"/>
  <rect x="172" y="26" width="7" height="7" fill="#a8aeb7"/>
  <rect x="46" y="33" width="7" height="7" fill="#2f6fd0"/>
  <rect x="53" y="33" width="7" height="7" fill="#ffffff"/>
  <rect x="60" y="33" width="7" height="7" fill="#2f6fd0"/>
  <rect x="67" y="33" width="7" height="7" fill="#6fa8e6"/>
  <rect x="158" y="33" width="7" height="7" fill="#d6dae0"/>
  <rect x="165" y="33" width="7" height="7" fill="#d6dae0"/>
  <rect x="172" y="33" width="7" height="7" fill="#a8aeb7"/>
  <rect x="46" y="40" width="7" height="7" fill="#2f6fd0"/>
  <rect x="53" y="40" width="7" height="7" fill="#2f6fd0"/>
  <rect x="60" y="40" width="7" height="7" fill="#ffffff"/>
  <rect x="67" y="40" width="7" height="7" fill="#2f6fd0"/>
  <rect x="158" y="40" width="7" height="7" fill="#d6dae0"/>
  <rect x="165" y="40" width="7" height="7" fill="#a8aeb7"/>
  <rect x="46" y="47" width="7" height="7" fill="#2f6fd0"/>
  <rect x="53" y="47" width="7" height="7" fill="#2f6fd0"/>
  <rect x="60" y="47" width="7" height="7" fill="#6fa8e6"/>
  <rect x="67" y="47" width="7" height="7" fill="#2f6fd0"/>
  <rect x="158" y="47" width="7" height="7" fill="#a8aeb7"/>
  <rect x="165" y="47" width="7" height="7" fill="#d6dae0"/>
  <rect x="60" y="54" width="7" height="7" fill="#7a4a28"/>
  <rect x="67" y="54" width="7" height="7" fill="#52301a"/>
  <rect x="95" y="54" width="7" height="7" fill="#b4b4be"/>
  <rect x="151" y="54" width="7" height="7" fill="#d6dae0"/>
  <rect x="158" y="54" width="7" height="7" fill="#a8aeb7"/>
  <rect x="60" y="61" width="7" height="7" fill="#7a4a28"/>
  <rect x="67" y="61" width="7" height="7" fill="#52301a"/>
  <rect x="88" y="61" width="7" height="7" fill="#b4b4be"/>
  <rect x="95" y="61" width="7" height="7" fill="#b4b4be"/>
  <rect x="102" y="61" width="7" height="7" fill="#b4b4be"/>
  <rect x="144" y="61" width="7" height="7" fill="#d6dae0"/>
  <rect x="151" y="61" width="7" height="7" fill="#d6dae0"/>
  <rect x="158" y="61" width="7" height="7" fill="#a8aeb7"/>
  <rect x="60" y="68" width="7" height="7" fill="#7a4a28"/>
  <rect x="67" y="68" width="7" height="7" fill="#52301a"/>
  <rect x="88" y="68" width="7" height="7" fill="#b4b4be"/>
  <rect x="95" y="68" width="7" height="7" fill="#b4b4be"/>
  <rect x="102" y="68" width="7" height="7" fill="#8a8a95"/>
  <rect x="144" y="68" width="7" height="7" fill="#d6dae0"/>
  <rect x="151" y="68" width="7" height="7" fill="#a8aeb7"/>
  <rect x="60" y="75" width="7" height="7" fill="#7a4a28"/>
  <rect x="67" y="75" width="7" height="7" fill="#52301a"/>
  <rect x="81" y="75" width="7" height="7" fill="#b4b4be"/>
  <rect x="88" y="75" width="7" height="7" fill="#b4b4be"/>
  <rect x="95" y="75" width="7" height="7" fill="#b4b4be"/>
  <rect x="102" y="75" width="7" height="7" fill="#8a8a95"/>
  <rect x="109" y="75" width="7" height="7" fill="#8a8a95"/>
  <rect x="144" y="75" width="7" height="7" fill="#a8aeb7"/>
  <rect x="151" y="75" width="7" height="7" fill="#d6dae0"/>
  <rect x="60" y="82" width="7" height="7" fill="#7a4a28"/>
  <rect x="67" y="82" width="7" height="7" fill="#52301a"/>
  <rect x="74" y="82" width="7" height="7" fill="#b4b4be"/>
  <rect x="81" y="82" width="7" height="7" fill="#b4b4be"/>
  <rect x="88" y="82" width="7" height="7" fill="#b4b4be"/>
  <rect x="95" y="82" width="7" height="7" fill="#b4b4be"/>
  <rect x="102" y="82" width="7" height="7" fill="#b4b4be"/>
  <rect x="109" y="82" width="7" height="7" fill="#8a8a95"/>
  <rect x="116" y="82" width="7" height="7" fill="#8a8a95"/>
  <rect x="137" y="82" width="7" height="7" fill="#d6dae0"/>
  <rect x="144" y="82" width="7" height="7" fill="#a8aeb7"/>
  <rect x="53" y="89" width="7" height="7" fill="#e2b07f"/>
  <rect x="60" y="89" width="7" height="7" fill="#e2b07f"/>
  <rect x="67" y="89" width="7" height="7" fill="#e2b07f"/>
  <rect x="74" y="89" width="7" height="7" fill="#b4b4be"/>
  <rect x="81" y="89" width="7" height="7" fill="#b4b4be"/>
  <rect x="88" y="89" width="7" height="7" fill="#b4b4be"/>
  <rect x="95" y="89" width="7" height="7" fill="#b4b4be"/>
  <rect x="102" y="89" width="7" height="7" fill="#b4b4be"/>
  <rect x="109" y="89" width="7" height="7" fill="#b4b4be"/>
  <rect x="116" y="89" width="7" height="7" fill="#8a8a95"/>
  <rect x="123" y="89" width="7" height="7" fill="#8a8a95"/>
  <rect x="130" y="89" width="7" height="7" fill="#e2b07f"/>
  <rect x="137" y="89" width="7" height="7" fill="#e2b07f"/>
  <rect x="144" y="89" width="7" height="7" fill="#e2b07f"/>
  <rect x="53" y="96" width="7" height="7" fill="#e2b07f"/>
  <rect x="60" y="96" width="7" height="7" fill="#e2b07f"/>
  <rect x="67" y="96" width="7" height="7" fill="#e2b07f"/>
  <rect x="81" y="96" width="7" height="7" fill="#f1efe8"/>
  <rect x="88" y="96" width="7" height="7" fill="#f1efe8"/>
  <rect x="95" y="96" width="7" height="7" fill="#f1efe8"/>
  <rect x="102" y="96" width="7" height="7" fill="#f1efe8"/>
  <rect x="109" y="96" width="7" height="7" fill="#f1efe8"/>
  <rect x="116" y="96" width="7" height="7" fill="#f1efe8"/>
  <rect x="123" y="96" width="7" height="7" fill="#52301a"/>
  <rect x="130" y="96" width="7" height="7" fill="#e2b07f"/>
  <rect x="137" y="96" width="7" height="7" fill="#e2b07f"/>
  <rect x="144" y="96" width="7" height="7" fill="#e2b07f"/>
  <rect x="60" y="103" width="7" height="7" fill="#7a4a28"/>
  <rect x="67" y="103" width="7" height="7" fill="#8a8a95"/>
  <rect x="74" y="103" width="7" height="7" fill="#52301a"/>
  <rect x="81" y="103" width="7" height="7" fill="#f1efe8"/>
  <rect x="88" y="103" width="7" height="7" fill="#f1efe8"/>
  <rect x="95" y="103" width="7" height="7" fill="#e2b07f"/>
  <rect x="102" y="103" width="7" height="7" fill="#e2b07f"/>
  <rect x="109" y="103" width="7" height="7" fill="#f1efe8"/>
  <rect x="116" y="103" width="7" height="7" fill="#f1efe8"/>
  <rect x="130" y="103" width="7" height="7" fill="#8a8a95"/>
  <rect x="137" y="103" width="7" height="7" fill="#8a8a95"/>
  <rect x="67" y="110" width="7" height="7" fill="#7a4a28"/>
  <rect x="74" y="110" width="7" height="7" fill="#52301a"/>
  <rect x="81" y="110" width="7" height="7" fill="#f1efe8"/>
  <rect x="88" y="110" width="7" height="7" fill="#2b2b2b"/>
  <rect x="95" y="110" width="7" height="7" fill="#e2b07f"/>
  <rect x="102" y="110" width="7" height="7" fill="#e2b07f"/>
  <rect x="109" y="110" width="7" height="7" fill="#2b2b2b"/>
  <rect x="116" y="110" width="7" height="7" fill="#f1efe8"/>
  <rect x="130" y="110" width="7" height="7" fill="#8a8a95"/>
  <rect x="137" y="110" width="7" height="7" fill="#8a8a95"/>
  <rect x="67" y="117" width="7" height="7" fill="#7a4a28"/>
  <rect x="74" y="117" width="7" height="7" fill="#52301a"/>
  <rect x="81" y="117" width="7" height="7" fill="#f1efe8"/>
  <rect x="88" y="117" width="7" height="7" fill="#e2b07f"/>
  <rect x="95" y="117" width="7" height="7" fill="#bf8c5a"/>
  <rect x="102" y="117" width="7" height="7" fill="#bf8c5a"/>
  <rect x="109" y="117" width="7" height="7" fill="#e2b07f"/>
  <rect x="116" y="117" width="7" height="7" fill="#f1efe8"/>
  <rect x="123" y="117" width="7" height="7" fill="#8a8a95"/>
  <rect x="130" y="117" width="7" height="7" fill="#8a8a95"/>
  <rect x="67" y="124" width="7" height="7" fill="#7a4a28"/>
  <rect x="74" y="124" width="7" height="7" fill="#52301a"/>
  <rect x="81" y="124" width="7" height="7" fill="#f1efe8"/>
  <rect x="88" y="124" width="7" height="7" fill="#3a2222"/>
  <rect x="95" y="124" width="7" height="7" fill="#3a2222"/>
  <rect x="102" y="124" width="7" height="7" fill="#3a2222"/>
  <rect x="109" y="124" width="7" height="7" fill="#3a2222"/>
  <rect x="116" y="124" width="7" height="7" fill="#f1efe8"/>
  <rect x="67" y="131" width="7" height="7" fill="#7a4a28"/>
  <rect x="74" y="131" width="7" height="7" fill="#52301a"/>
  <rect x="81" y="131" width="7" height="7" fill="#f1efe8"/>
  <rect x="88" y="131" width="7" height="7" fill="#3a2222"/>
  <rect x="95" y="131" width="7" height="7" fill="#3a2222"/>
  <rect x="102" y="131" width="7" height="7" fill="#3a2222"/>
  <rect x="109" y="131" width="7" height="7" fill="#3a2222"/>
  <rect x="116" y="131" width="7" height="7" fill="#f1efe8"/>
  <rect x="67" y="138" width="7" height="7" fill="#7a4a28"/>
  <rect x="74" y="138" width="7" height="7" fill="#52301a"/>
  <rect x="81" y="138" width="7" height="7" fill="#f1efe8"/>
  <rect x="88" y="138" width="7" height="7" fill="#f1efe8"/>
  <rect x="95" y="138" width="7" height="7" fill="#f1efe8"/>
  <rect x="102" y="138" width="7" height="7" fill="#f1efe8"/>
  <rect x="109" y="138" width="7" height="7" fill="#f1efe8"/>
  <rect x="116" y="138" width="7" height="7" fill="#f1efe8"/>
  <rect x="123" y="138" width="7" height="7" fill="#f1efe8"/>
  <rect x="67" y="145" width="7" height="7" fill="#7a4a28"/>
  <rect x="74" y="145" width="7" height="7" fill="#52301a"/>
  <rect x="81" y="145" width="7" height="7" fill="#f1efe8"/>
  <rect x="88" y="145" width="7" height="7" fill="#f1efe8"/>
  <rect x="95" y="145" width="7" height="7" fill="#f1efe8"/>
  <rect x="102" y="145" width="7" height="7" fill="#f1efe8"/>
  <rect x="109" y="145" width="7" height="7" fill="#f1efe8"/>
  <rect x="116" y="145" width="7" height="7" fill="#f1efe8"/>
  <rect x="123" y="145" width="7" height="7" fill="#f1efe8"/>
  <rect x="67" y="152" width="7" height="7" fill="#7a4a28"/>
  <rect x="74" y="152" width="7" height="7" fill="#52301a"/>
  <rect x="81" y="152" width="7" height="7" fill="#cfccc3"/>
  <rect x="88" y="152" width="7" height="7" fill="#f1efe8"/>
  <rect x="95" y="152" width="7" height="7" fill="#f1efe8"/>
  <rect x="102" y="152" width="7" height="7" fill="#f1efe8"/>
  <rect x="109" y="152" width="7" height="7" fill="#f1efe8"/>
  <rect x="116" y="152" width="7" height="7" fill="#cfccc3"/>
  <rect x="123" y="152" width="7" height="7" fill="#f1efe8"/>
  <rect x="130" y="152" width="7" height="7" fill="#8a8a95"/>
  <rect x="67" y="159" width="7" height="7" fill="#8a8a95"/>
  <rect x="74" y="159" width="7" height="7" fill="#f1efe8"/>
  <rect x="81" y="159" width="7" height="7" fill="#f1efe8"/>
  <rect x="88" y="159" width="7" height="7" fill="#f1efe8"/>
  <rect x="95" y="159" width="7" height="7" fill="#f1efe8"/>
  <rect x="102" y="159" width="7" height="7" fill="#f1efe8"/>
  <rect x="109" y="159" width="7" height="7" fill="#f1efe8"/>
  <rect x="116" y="159" width="7" height="7" fill="#f1efe8"/>
  <rect x="123" y="159" width="7" height="7" fill="#f1efe8"/>
  <rect x="130" y="159" width="7" height="7" fill="#8a8a95"/>
  <rect x="60" y="166" width="7" height="7" fill="#8a8a95"/>
  <rect x="67" y="166" width="7" height="7" fill="#8a8a95"/>
  <rect x="74" y="166" width="7" height="7" fill="#8a8a95"/>
  <rect x="81" y="166" width="7" height="7" fill="#f1efe8"/>
  <rect x="88" y="166" width="7" height="7" fill="#f1efe8"/>
  <rect x="95" y="166" width="7" height="7" fill="#cfccc3"/>
  <rect x="102" y="166" width="7" height="7" fill="#f1efe8"/>
  <rect x="109" y="166" width="7" height="7" fill="#f1efe8"/>
  <rect x="116" y="166" width="7" height="7" fill="#f1efe8"/>
  <rect x="123" y="166" width="7" height="7" fill="#8a8a95"/>
  <rect x="130" y="166" width="7" height="7" fill="#8a8a95"/>
  <rect x="60" y="173" width="7" height="7" fill="#8a8a95"/>
  <rect x="67" y="173" width="7" height="7" fill="#8a8a95"/>
  <rect x="74" y="173" width="7" height="7" fill="#8a8a95"/>
  <rect x="81" y="173" width="7" height="7" fill="#5e5e68"/>
  <rect x="88" y="173" width="7" height="7" fill="#f1efe8"/>
  <rect x="95" y="173" width="7" height="7" fill="#f1efe8"/>
  <rect x="102" y="173" width="7" height="7" fill="#f1efe8"/>
  <rect x="109" y="173" width="7" height="7" fill="#f1efe8"/>
  <rect x="116" y="173" width="7" height="7" fill="#5e5e68"/>
  <rect x="123" y="173" width="7" height="7" fill="#8a8a95"/>
  <rect x="130" y="173" width="7" height="7" fill="#8a8a95"/>
  <rect x="137" y="173" width="7" height="7" fill="#8a8a95"/>
  <rect x="60" y="180" width="7" height="7" fill="#8a8a95"/>
  <rect x="67" y="180" width="7" height="7" fill="#8a8a95"/>
  <rect x="74" y="180" width="7" height="7" fill="#8a8a95"/>
  <rect x="81" y="180" width="7" height="7" fill="#5e5e68"/>
  <rect x="88" y="180" width="7" height="7" fill="#8a8a95"/>
  <rect x="95" y="180" width="7" height="7" fill="#5e5e68"/>
  <rect x="102" y="180" width="7" height="7" fill="#8a8a95"/>
  <rect x="109" y="180" width="7" height="7" fill="#8a8a95"/>
  <rect x="116" y="180" width="7" height="7" fill="#5e5e68"/>
  <rect x="123" y="180" width="7" height="7" fill="#8a8a95"/>
  <rect x="130" y="180" width="7" height="7" fill="#8a8a95"/>
  <rect x="137" y="180" width="7" height="7" fill="#8a8a95"/>
  <rect x="53" y="187" width="7" height="7" fill="#8a8a95"/>
  <rect x="60" y="187" width="7" height="7" fill="#8a8a95"/>
  <rect x="67" y="187" width="7" height="7" fill="#8a8a95"/>
  <rect x="74" y="187" width="7" height="7" fill="#8a8a95"/>
  <rect x="81" y="187" width="7" height="7" fill="#5e5e68"/>
  <rect x="88" y="187" width="7" height="7" fill="#8a8a95"/>
  <rect x="95" y="187" width="7" height="7" fill="#5e5e68"/>
  <rect x="102" y="187" width="7" height="7" fill="#8a8a95"/>
  <rect x="109" y="187" width="7" height="7" fill="#8a8a95"/>
  <rect x="116" y="187" width="7" height="7" fill="#5e5e68"/>
  <rect x="123" y="187" width="7" height="7" fill="#8a8a95"/>
  <rect x="130" y="187" width="7" height="7" fill="#8a8a95"/>
  <rect x="137" y="187" width="7" height="7" fill="#8a8a95"/>
  <rect x="144" y="187" width="7" height="7" fill="#8a8a95"/>
  <rect x="53" y="194" width="7" height="7" fill="#8a8a95"/>
  <rect x="60" y="194" width="7" height="7" fill="#8a8a95"/>
  <rect x="67" y="194" width="7" height="7" fill="#8a8a95"/>
  <rect x="74" y="194" width="7" height="7" fill="#8a8a95"/>
  <rect x="81" y="194" width="7" height="7" fill="#5e5e68"/>
  <rect x="88" y="194" width="7" height="7" fill="#8a8a95"/>
  <rect x="95" y="194" width="7" height="7" fill="#5e5e68"/>
  <rect x="102" y="194" width="7" height="7" fill="#8a8a95"/>
  <rect x="109" y="194" width="7" height="7" fill="#8a8a95"/>
  <rect x="116" y="194" width="7" height="7" fill="#5e5e68"/>
  <rect x="123" y="194" width="7" height="7" fill="#8a8a95"/>
  <rect x="130" y="194" width="7" height="7" fill="#8a8a95"/>
  <rect x="137" y="194" width="7" height="7" fill="#8a8a95"/>
  <rect x="144" y="194" width="7" height="7" fill="#8a8a95"/>
  <rect x="46" y="201" width="7" height="7" fill="#8a8a95"/>
  <rect x="53" y="201" width="7" height="7" fill="#8a8a95"/>
  <rect x="60" y="201" width="7" height="7" fill="#4a2e1a"/>
  <rect x="67" y="201" width="7" height="7" fill="#4a2e1a"/>
  <rect x="74" y="201" width="7" height="7" fill="#4a2e1a"/>
  <rect x="81" y="201" width="7" height="7" fill="#4a2e1a"/>
  <rect x="88" y="201" width="7" height="7" fill="#8a8a95"/>
  <rect x="95" y="201" width="7" height="7" fill="#5e5e68"/>
  <rect x="102" y="201" width="7" height="7" fill="#8a8a95"/>
  <rect x="109" y="201" width="7" height="7" fill="#8a8a95"/>
  <rect x="116" y="201" width="7" height="7" fill="#4a2e1a"/>
  <rect x="123" y="201" width="7" height="7" fill="#4a2e1a"/>
  <rect x="130" y="201" width="7" height="7" fill="#4a2e1a"/>
  <rect x="137" y="201" width="7" height="7" fill="#4a2e1a"/>
  <rect x="144" y="201" width="7" height="7" fill="#8a8a95"/>
  <rect x="60" y="208" width="7" height="7" fill="#4a2e1a"/>
  <rect x="67" y="208" width="7" height="7" fill="#4a2e1a"/>
  <rect x="74" y="208" width="7" height="7" fill="#4a2e1a"/>
  <rect x="81" y="208" width="7" height="7" fill="#4a2e1a"/>
  <rect x="116" y="208" width="7" height="7" fill="#4a2e1a"/>
  <rect x="123" y="208" width="7" height="7" fill="#4a2e1a"/>
  <rect x="130" y="208" width="7" height="7" fill="#4a2e1a"/>
  <rect x="137" y="208" width="7" height="7" fill="#4a2e1a"/>
  <g font-family="'Courier New',monospace" font-weight="bold">
    <text x="210" y="104" font-size="46" fill="#f0f6fc">HARNESS</text>
    <text x="210" y="152" font-size="46" fill="#f0f6fc">ENGINEERING</text>
  </g>
  <text x="210" y="186" font-family="'Courier New',monospace" font-size="15" fill="#8b949e">A curated developer workflow for any AI harness.</text>
  <text x="210" y="208" font-family="'Courier New',monospace" font-weight="bold" font-size="15" fill="#c9d1d9">YOU SHOULD NOT PASS!</text>
</svg>
